<svg xmlns="http://www.w3.org/2000/svg" width="490" height="108.3">
  <path fill="#8dc830" fill-rule="evenodd" d="M319.9 23.9h-15.2v43.8H289V22.9h-12.7V9h33.6l10 14.9zM315.1 9H334l7.9 15.1.3.4c.8 1.6 1.4 3.1 1.7 4.5.3-1.3.8-2.8 1.7-4.4l.3-.6 7.9-15h18.4l-20.6 31.8v26.9H336V40.9L315.1 9zm99.6 45.7l9.4 13.9-48.9-.1V9h15.7v45.8l23.8-.1zm39.9 12.9l-10 9.1h-230V60.1l21-21.5-21-21.5V0h232.7L490 36.7l-34.5 30.7V54.8h-20.6v-10h19.6V31.9h-19.6v-10h20.6V9h-36.2v41.7l11.2 17 24.1-.1zM235.2 49.1a27 27 0 0 0 7.1 6 14 14 0 0 0 6.9 2c2.1 0 3.9-.6 5.3-1.7a5.4 5.4 0 0 0 2.1-4.4c0-1.9-.6-3.4-1.8-4.5a23.3 23.3 0 0 0-8.1-3.3 28 28 0 0 1-12.3-6 14.1 14.1 0 0 1-3.6-10.2c0-5.6 1.9-10.2 5.7-13.7 3.8-3.5 8.7-5.3 14.7-5.3a30.5 30.5 0 0 1 17.5 5.3l-5 11.5a22.6 22.6 0 0 0-5.6-3.5c-1.9-.8-3.8-1.2-5.7-1.2-1.9 0-3.5.5-4.7 1.4a4.2 4.2 0 0 0-1.8 3.5c0 1.5.5 2.6 1.6 3.5 1.1.9 3.1 1.7 6.1 2.5l.7.2c6.6 1.8 10.9 3.7 12.9 5.8 1.4 1.4 2.5 3.2 3.2 5.2a20 20 0 0 1 1.1 6.7c0 6.2-2 11.2-6.2 15a23.2 23.2 0 0 1-16.4 5.7A28.7 28.7 0 0 1 228 61l7.2-11.9z" clip-rule="evenodd"/>
  <path fill="#29abe2" d="M68.6 36.3H72c4 0 7-.7 8.8-2 1.9-1.4 2.8-3.5 2.8-6.4 0-3.4-.9-5.8-2.6-7.3-1.7-1.4-4.6-2.2-8.7-2.2h-3.7v17.9zm145-4.9v-8.3l16.3 16.2-8.1 8.1-8.1 8.1v-9.2l-29.4-.1v11h23.5v14.9h-41.1V52.8l12.1-14-12.1-14V4.5h41.1v14.9h-23.5v11.9l29.3.1zM112.7 56.3V4.5h41.1v14.9h-23.5v11.9l26.4-.2V20.5l8.3 8.7 8.3 8.7-8.3 8.7-8.3 8.7v-9.9l-26.4.1v11.8h23.5v14.9h-29l-12.1-15.9zM84.2 72.1L68.6 45.4v26.7H50.9V19.4h-6.5L33.8 4.5h37.1c7.6 0 12.8.4 15.8 1A18.3 18.3 0 0 1 100 16c1.3 2.9 2 6 2 9.5 0 5.2-1.3 9.5-3.9 12.7a18.6 18.6 0 0 1-11.3 6.5l8.5 12.5H107l11.4 14.9H84.2zM0 72.2V4.5h27.7l10.4 14.9H17.6v11.9h22.5v13.9H17.6v26.9H0z"/>
  <path fill="#fff" d="M357.1 108.3V88.4h5.9v9l6.9-9h6.9l-8.1 9.7 8.8 10.2H370l-7.1-8.9v8.9h-5.8zm-17.7-10.9h1c1.1 0 1.9-.2 2.4-.6.5-.4.8-1 .8-1.8 0-1-.2-1.6-.7-2-.5-.4-1.3-.6-2.4-.6h-1v5zm-4.9 10.9V88.4h5.5c2.1 0 3.6.1 4.5.3.8.2 1.6.6 2.2 1a5 5 0 0 1 1.6 2.1c.4.9.6 1.8.6 2.8 0 1.5-.4 2.8-1.1 3.8a5 5 0 0 1-3.2 1.9l5.2 8h-5.9l-4.4-7.8v7.8h-5zm-27.8 0l6.9-19.9h6.8l6.9 19.9H322l-1-4h-7.8l-1.1 4h-5.4zm7.6-7.9h5.5L317 91l-2.7 9.4zm-21.9-3h1.1c1.4 0 2.4-.2 2.9-.6.5-.4.8-1 .8-1.9 0-.9-.3-1.5-.8-1.9-.5-.4-1.5-.6-2.9-.6h-1.2v5zm0 10.9h-4.9V88.4h6c2.3 0 4 .1 4.9.3.9.2 1.7.6 2.4 1.2.8.6 1.4 1.4 1.8 2.4a8.8 8.8 0 0 1 0 6.5 5.8 5.8 0 0 1-3.9 3.3c-.8.2-2.1.3-3.8.3h-2.5v5.9zm-39.2 0V88.4H266v4h-6.9v4h6.9v4h-6.9v3h6.9v5h-12.8zm-7.4 0h-5.1l-1.2-8.6-.2-2-.2-2.4-.7 3.2-.2.6-2.7 9.3h-3.6l-2.7-9.3-.2-.6c-.4-1.3-.6-2.3-.7-3.1l-.2 2.2-.2 2.2-1.2 8.6h-5.1l3.1-19.9h5.4l3 10.3.1.4c.3.9.5 1.7.5 2.3l.2-1.2.4-1.6 3-10.2h5.4l3.1 19.8zm-44.5 0V88.4H214v4h-6.9v4h6.9v4h-6.9v3h6.9v5h-12.7zm-17.6-10.9h1c1.1 0 1.9-.2 2.4-.6.5-.4.8-1 .8-1.8 0-1-.2-1.6-.7-2-.5-.4-1.3-.6-2.4-.6h-1v5zm-4.9 10.9V88.4h5.5c2.1 0 3.6.1 4.5.3.8.2 1.6.6 2.2 1a5 5 0 0 1 1.6 2.1c.4.9.6 1.8.6 2.8 0 1.5-.4 2.8-1.1 3.8a5 5 0 0 1-3.2 1.9l5.2 8h-5.9l-4.4-7.8v7.8h-5zm-17.7 0V93.4h-4.9v-5h14.7v5H167v14.9h-5.9zM140.3 93l.7 1.6.6-1.5.1-.1 2.4-4.6h6.5l-6.7 9.6 7.4 10.3h-6.2l-3.4-5.9a3 3 0 0 1-.4-.8l-.3-.8-.3.9a3 3 0 0 1-.4.8l-3.4 5.9h-6.2l7.4-10.4-6.7-9.5h6.5l2.4 4.5zm-28.1 15.3V88.4h12.7v4h-7.8v4h6.9v4h-6.9v3h7.8v5h-12.7z" opacity=".5"/>
</svg>